# xmcd
#
# Track frame offsets:
#	150
#	11062
#	50380
#	69422
#	95609
#	148891
#	193317
#	244596
#	259030
#
# Disc length: 3878 seconds
#
# Revision: 1
# Processed by: cddbd v1.5.2PL0 Copyright (c) Steve Scherf et al.
# Submitted via: audiograbber 1.83.01
#
DISCID=810f2409
DTITLE=Grateful Dead - 93-05-16 Sam Boyd Silver Bowl, Las Vegas NV
DYEAR=1900
DGENRE=
TTITLE0=Tuning
TTITLE1=Samson and Delilah
TTITLE2=Help On The Way
TTITLE3=Slipknot!
TTITLE4=Franklin's Tower
TTITLE5=Looks Like Rain
TTITLE6=Terrapin Station
TTITLE7=Hot Slots Jam
TTITLE8=Drums
EXTD=
EXTT0=
EXTT1=
EXTT2=
EXTT3=
EXTT4=
EXTT5=
EXTT6=
EXTT7=
EXTT8=
PLAYORDER=
